<svg width="265" height="81" viewBox="0 0 265 81" fill="none" xmlns="http://www.w3.org/2000/svg">
<path d="M21.76 79.384C20.9067 79.384 20.1813 79.2133 19.584 78.872C18.9867 78.5307 18.688 77.8907 18.688 76.952C18.688 75.7573 18.9867 74.392 19.584 72.856C20.1813 71.32 20.864 69.8267 21.632 68.376C22.4 66.84 23.0827 65.6027 23.68 64.664C20.6933 67.8213 17.5787 70.808 14.336 73.624C12.7147 74.9893 10.9227 76.2693 8.96 77.464C6.99733 78.6587 4.90667 79.256 2.688 79.256C1.83467 79.256 1.23733 79 0.896 78.488C0.554667 77.8907 0.384 77.208 0.384 76.44C0.384 76.0133 0.426667 75.7147 0.512 75.544C0.938667 72.216 2.00533 68.76 3.712 65.176C5.41867 61.592 7.50933 58.2213 9.984 55.064C12.4587 51.9067 14.976 49.3467 17.536 47.384C19.4987 45.9333 21.376 45.0373 23.168 44.696C24.96 44.2693 26.9227 44.056 29.056 44.056H33.28C34.6453 41.752 36.0533 39.192 37.504 36.376C39.04 33.4747 40.5333 30.616 41.984 27.8C43.52 24.984 44.928 22.5093 46.208 20.376C49.7067 14.4027 53.5467 9.624 57.728 6.03999C61.9947 2.45599 66.7307 0.663994 71.936 0.663994C73.0453 0.663994 74.0693 1.00533 75.008 1.688C75.9467 2.28533 76.3733 3.224 76.288 4.504L76.032 9.112C76.032 9.19733 75.9467 9.32533 75.776 9.49599C75.6053 9.58133 75.4773 9.62399 75.392 9.62399C75.3067 9.62399 75.1787 9.53866 75.008 9.368C74.752 7.832 73.984 6.68 72.704 5.91199C71.424 5.05866 69.8453 4.632 67.968 4.632C67.3707 4.632 66.688 4.67466 65.92 4.75999C65.2373 4.84533 64.5547 5.01599 63.872 5.272C61.4827 6.12533 59.2213 7.87466 57.088 10.52C54.9547 13.08 52.6507 16.4933 50.176 20.76C49.3227 22.3813 48.2133 24.5147 46.848 27.16C45.4827 29.72 44.032 32.4933 42.496 35.48C41.0453 38.4667 39.6373 41.368 38.272 44.184C36.992 47 35.8827 49.3893 34.944 51.352C34.5173 52.376 33.792 53.9547 32.768 56.088C31.744 58.136 30.6347 60.3973 29.44 62.872C28.3307 65.2613 27.3493 67.48 26.496 69.528C25.728 71.576 25.344 73.0267 25.344 73.88C25.344 75.0747 25.856 75.672 26.88 75.672C27.904 75.672 29.2693 75.0747 30.976 73.88C32.6827 72.6 34.432 71.064 36.224 69.272C38.1013 67.3947 39.7653 65.6027 41.216 63.896C42.752 62.1893 43.8187 60.9093 44.416 60.056C44.672 60.312 44.8 60.6107 44.8 60.952C44.8 61.5493 44.544 62.1467 44.032 62.744C43.6053 63.3413 43.2213 63.8533 42.88 64.28C41.344 66.328 39.424 68.5467 37.12 70.936C34.9013 73.24 32.4693 75.2453 29.824 76.952C27.1787 78.5733 24.4907 79.384 21.76 79.384ZM7.936 74.904C8.96 74.904 10.368 74.1787 12.16 72.728C14.0373 71.192 16.0427 69.3147 18.176 67.096C20.3093 64.792 22.3147 62.4027 24.192 59.928C26.0693 57.368 27.6053 55.064 28.8 53.016C30.08 50.8827 30.72 49.2613 30.72 48.152C30.72 47.2133 30.4213 46.5733 29.824 46.232C29.312 45.8907 28.6293 45.72 27.776 45.72C26.4107 45.72 24.9173 46.232 23.296 47.256C21.76 48.1947 20.5227 49.1333 19.584 50.072C18.56 51.0107 17.3227 52.504 15.872 54.552C14.5067 56.5147 13.1413 58.6907 11.776 61.08C10.4107 63.4693 9.25867 65.7733 8.32 67.992C7.38133 70.2107 6.912 72.0027 6.912 73.368C6.912 74.392 7.25333 74.904 7.936 74.904ZM42.745 80.792C42.4037 80.792 42.4037 80.4507 42.745 79.768C43.1717 79 43.5557 78.1467 43.897 77.208C44.3237 76.2693 44.7503 75.2453 45.177 74.136C46.0303 72.088 46.969 69.784 47.993 67.224C49.017 64.664 49.9983 62.1893 50.937 59.8C51.8757 57.3253 52.6863 55.2347 53.369 53.528C54.137 51.736 54.649 50.584 54.905 50.072C53.7103 51.352 52.2597 52.9733 50.553 54.936C48.9317 56.8133 47.3957 58.648 45.945 60.44C44.4943 62.232 43.385 63.64 42.617 64.664C42.361 65.0053 42.1477 65.176 41.977 65.176C41.8063 65.176 41.721 64.9627 41.721 64.536C41.721 63.8533 41.9343 63.2133 42.361 62.616C43.9823 60.568 45.7743 58.264 47.737 55.704C49.785 53.144 51.6197 50.7973 53.241 48.664C54.8623 46.4453 55.8863 44.9947 56.313 44.312C57.2517 44.1413 58.617 43.8853 60.409 43.544C62.2863 43.2027 63.5663 42.7333 64.249 42.136C64.505 41.88 64.761 41.752 65.017 41.752C65.1877 41.752 65.273 41.9227 65.273 42.264C65.3583 42.52 65.273 42.8187 65.017 43.16C64.505 43.672 63.737 44.7813 62.713 46.488C61.7743 48.1947 60.7077 50.1573 59.513 52.376C58.3183 54.5947 57.1663 56.728 56.057 58.776C56.9103 57.496 58.0197 56.0027 59.385 54.296C60.8357 52.504 62.4143 50.7973 64.121 49.176C65.8277 47.4693 67.5343 46.0613 69.241 44.952C71.033 43.8427 72.697 43.288 74.233 43.288C75.3423 43.288 76.281 43.544 77.049 44.056C77.817 44.4827 78.4143 45.2933 78.841 46.488C79.097 47.0853 79.225 47.768 79.225 48.536C79.225 49.9867 78.841 51.3947 78.073 52.76C77.3903 54.04 76.8783 55.0213 76.537 55.704C76.4517 55.96 76.153 56.216 75.641 56.472C75.129 56.6427 74.9157 56.5573 75.001 56.216C75.0863 55.7893 75.129 55.3627 75.129 54.936C75.2143 54.5093 75.257 54.04 75.257 53.528C75.257 52.0773 74.9583 50.7547 74.361 49.56C73.849 48.3653 72.8677 47.768 71.417 47.768C70.0517 47.768 68.3877 48.6213 66.425 50.328C64.4623 52.0347 62.4997 53.9973 60.537 56.216C58.0623 59.1173 56.0997 61.8907 54.649 64.536C53.1983 67.096 52.0037 69.6133 51.065 72.088C50.553 73.4533 50.041 74.8187 49.529 76.184C49.017 77.464 48.633 78.488 48.377 79.256C47.2677 79.3413 46.1583 79.5973 45.049 80.024C43.9397 80.536 43.1717 80.792 42.745 80.792ZM94.26 79.384C93.4067 79.384 92.6813 79.2133 92.084 78.872C91.4867 78.5307 91.188 77.8907 91.188 76.952C91.188 75.7573 91.4867 74.392 92.084 72.856C92.6813 71.32 93.364 69.8267 94.132 68.376C94.9 66.84 95.5827 65.6027 96.18 64.664C93.1933 67.8213 90.0787 70.808 86.836 73.624C85.2147 74.9893 83.4227 76.2693 81.46 77.464C79.4973 78.6587 77.4067 79.256 75.188 79.256C74.3347 79.256 73.7373 79 73.396 78.488C73.0547 77.8907 72.884 77.208 72.884 76.44C72.884 76.0133 72.9267 75.7147 73.012 75.544C73.4387 72.216 74.5053 68.76 76.212 65.176C77.9187 61.592 80.0093 58.2213 82.484 55.064C84.9587 51.9067 87.476 49.3467 90.036 47.384C92.9373 45.1653 96.1373 44.056 99.636 44.056H114.356C114.783 44.056 114.996 44.2267 114.996 44.568C114.996 45.2507 114.612 45.592 113.844 45.592C112.991 45.592 112.137 46.1467 111.284 47.256C110.431 48.28 109.791 49.1333 109.364 49.816C108.767 50.7547 107.828 52.3333 106.548 54.552C105.268 56.7707 103.945 59.2027 102.58 61.848C101.3 64.408 100.191 66.7973 99.252 69.016C98.3133 71.2347 97.844 72.856 97.844 73.88C97.844 75.0747 98.4413 75.672 99.636 75.672C100.916 75.672 102.367 75.0747 103.988 73.88C105.609 72.6853 107.231 71.2347 108.852 69.528C110.559 67.736 112.095 65.9867 113.46 64.28C114.911 62.488 116.063 61.08 116.916 60.056C117.428 60.568 117.385 61.2933 116.788 62.232C116.276 63.0853 115.807 63.768 115.38 64.28C113.673 66.4987 111.711 68.8027 109.492 71.192C107.273 73.496 104.841 75.4587 102.196 77.08C99.636 78.616 96.9907 79.384 94.26 79.384ZM80.436 74.904C81.46 74.904 82.868 74.1787 84.66 72.728C86.5373 71.192 88.5427 69.3147 90.676 67.096C92.8093 64.792 94.8147 62.4027 96.692 59.928C98.5693 57.368 100.105 55.064 101.3 53.016C102.58 50.8827 103.22 49.2613 103.22 48.152C103.22 47.2133 102.921 46.5733 102.324 46.232C101.812 45.8907 101.129 45.72 100.276 45.72C98.9107 45.72 97.4173 46.232 95.796 47.256C94.26 48.1947 93.0227 49.1333 92.084 50.072C91.06 51.0107 89.8227 52.504 88.372 54.552C87.0067 56.5147 85.6413 58.6907 84.276 61.08C82.9107 63.4693 81.7587 65.7733 80.82 67.992C79.8813 70.2107 79.412 72.0027 79.412 73.368C79.412 74.392 79.7533 74.904 80.436 74.904ZM119.085 79.768C118.232 79.768 117.336 79.4693 116.397 78.872C115.544 78.1893 114.861 77.5493 114.349 76.952C114.264 76.7813 114.605 76.44 115.373 75.928C116.141 75.3307 116.952 74.776 117.805 74.264C118.744 73.752 119.256 73.5387 119.341 73.624C120.024 73.9653 120.706 74.3493 121.389 74.776C122.072 75.1173 122.797 75.2453 123.565 75.16H124.077C124.504 75.16 124.717 75.288 124.717 75.544C124.717 75.8 124.418 76.2267 123.821 76.824C123.053 77.4213 122.242 78.0613 121.389 78.744C120.621 79.4267 119.853 79.768 119.085 79.768ZM151.899 79.896C151.814 79.9813 151.728 80.024 151.643 80.024C151.387 80.024 151.259 79.64 151.259 78.872C151.259 78.36 151.387 77.848 151.643 77.336C151.984 76.7387 152.582 76.3973 153.435 76.312C155.824 76.1413 158.086 75.3307 160.219 73.88C162.352 72.4293 164.23 70.7227 165.851 68.76C167.472 66.712 168.624 64.792 169.307 63L181.083 33.56C182.704 29.5493 184.539 25.6667 186.587 21.912C188.72 18.1573 191.408 15.0853 194.651 12.696C197.979 10.3067 202.16 9.112 207.195 9.112C209.158 9.112 211.12 9.368 213.083 9.88C215.131 10.3067 216.838 11.032 218.203 12.056C219.568 13.08 220.251 14.5307 220.251 16.408C220.251 16.664 220.251 16.92 220.251 17.176C220.251 17.432 220.208 17.688 220.123 17.944C219.867 19.3093 219.099 20.6747 217.819 22.04C216.624 23.4053 215.686 25.112 215.003 27.16C214.918 27.7573 214.534 28.056 213.851 28.056C213.254 28.056 213.126 27.672 213.467 26.904C214.15 25.88 214.662 24.6853 215.003 23.32C215.43 21.8693 215.643 20.4187 215.643 18.968C215.643 16.7493 215.131 14.7867 214.107 13.08C213.083 11.3733 211.334 10.52 208.859 10.52C206.64 10.52 204.379 11.16 202.075 12.44C199.771 13.72 197.766 15.9387 196.059 19.096L172.379 62.744C170.16 66.84 168.112 69.784 166.235 71.576C164.443 73.2827 162.95 74.3493 161.755 74.776H192.603C196.699 74.776 200.496 74.648 203.995 74.392C207.494 74.136 209.627 73.496 210.395 72.472C211.248 71.2773 211.675 69.9973 211.675 68.632C211.675 66.4987 210.523 64.92 208.219 63.896C207.963 63.7253 207.835 63.5547 207.835 63.384C207.835 63.2133 207.92 63.0427 208.091 62.872C208.347 62.7013 208.646 62.7013 208.987 62.872C209.755 63.2133 210.651 63.9813 211.675 65.176C212.784 66.2853 213.808 67.5227 214.747 68.888C215.686 70.168 216.283 71.192 216.539 71.96C216.795 72.728 216.923 73.496 216.923 74.264C216.923 77.7627 213.894 79.512 207.835 79.512C203.056 79.512 197.936 79.3413 192.475 79C187.014 78.6587 181.595 78.2747 176.219 77.848C170.928 77.4213 165.936 77.1227 161.243 76.952C159.451 76.7813 157.659 77.0373 155.867 77.72C154.16 78.3173 152.838 79.0427 151.899 79.896ZM227.275 79.256C225.91 79.256 224.672 79 223.563 78.488C222.539 77.8907 222.027 76.6533 222.027 74.776C222.027 71.7893 222.795 68.8027 224.331 65.816C225.867 62.744 227.446 60.056 229.067 57.752C230.518 55.7893 232.139 53.9547 233.931 52.248C235.808 50.456 237.814 48.92 239.947 47.64C241.312 46.7867 243.147 45.8907 245.451 44.952C247.84 43.928 249.846 43.416 251.467 43.416C252.832 43.416 254.027 43.8 255.051 44.568C256.075 45.2507 256.587 46.5307 256.587 48.408C256.587 51.3093 255.819 54.296 254.283 57.368C252.832 60.3547 251.296 63 249.675 65.304C248.907 66.328 248.139 67.3093 247.371 68.248C246.603 69.1013 245.75 69.9973 244.811 70.936C247.968 70.936 250.87 70.04 253.515 68.248C256.16 66.3707 258.464 64.1093 260.427 61.464L260.683 61.208C260.939 61.208 261.067 61.464 261.067 61.976C261.067 62.5733 260.896 63.128 260.555 63.64C258.848 66.0293 256.715 68.1627 254.155 70.04C251.595 71.832 248.694 72.728 245.451 72.728C245.11 72.728 244.768 72.728 244.427 72.728C244.086 72.728 243.744 72.6853 243.403 72.6C238.624 77.0373 233.248 79.256 227.275 79.256ZM230.603 77.08C231.798 77.08 233.078 76.6533 234.443 75.8C235.894 74.9467 237.003 74.136 237.771 73.368C239.222 71.9173 240.544 70.3813 241.739 68.76C242.934 67.0533 244.043 65.3467 245.067 63.64C246.262 61.592 247.456 59.16 248.651 56.344C249.846 53.528 250.443 50.8827 250.443 48.408C250.443 46.4453 249.76 45.464 248.395 45.464C247.286 45.464 245.92 45.9333 244.299 46.872C242.763 47.8107 241.611 48.664 240.843 49.432C237.942 52.4187 235.51 55.6613 233.547 59.16C232.438 61.1227 231.243 63.4267 229.963 66.072C228.683 68.7173 228.043 71.1493 228.043 73.368C228.043 73.7093 228.043 74.0507 228.043 74.392C228.128 74.648 228.214 74.9467 228.299 75.288C228.64 76.4827 229.408 77.08 230.603 77.08ZM261.835 35.608C260.982 36.0347 259.702 35.5227 257.995 34.072C257.056 33.2187 255.904 32.1093 254.539 30.744C253.259 29.3787 252.406 28.4827 251.979 28.056C251.552 27.3733 251.04 27.2453 250.443 27.672C250.016 28.0133 249.078 28.696 247.627 29.72C246.262 30.6587 244.854 31.5973 243.403 32.536C241.952 33.4747 240.843 34.1573 240.075 34.584C239.051 35.096 238.198 35.1813 237.515 34.84C239.99 33.1333 242.464 31.384 244.939 29.592C247.499 27.8 249.846 25.9653 251.979 24.088H253.515C254.368 25.4533 255.563 26.9893 257.099 28.696C258.72 30.4027 260.427 31.8533 262.219 33.048C262.56 33.2187 262.902 33.432 263.243 33.688C263.584 33.944 264.011 34.072 264.523 34.072V34.456C264.267 34.5413 263.798 34.7547 263.115 35.096C262.432 35.352 262.006 35.5227 261.835 35.608Z" fill="#D0B49B"/>
</svg>
