<svg width="154" height="75" viewBox="0 0 154 75" fill="none" xmlns="http://www.w3.org/2000/svg">
<rect width="154" height="75" rx="4" fill="url(#paint0_linear_300_15)"/>
<path d="M0 4C0 1.79086 1.79086 0 4 0H50V75H4C1.79086 75 0 73.2091 0 71V4Z" fill="#2D3319"/>
<path d="M7.528 65V63.236C10.552 63.236 12.316 62.676 12.82 61.556V19.304C12.316 18.184 10.552 17.624 7.528 17.624V15.86H25.84V17.624C22.816 17.624 21.052 18.184 20.548 19.304V62.144H39.7C41.1 61.528 42.36 59.764 43.48 56.852H45.16L43.144 65H7.528Z" fill="white" fill-opacity="0.8"/>
<rect width="52" height="75" transform="translate(50)" fill="#517664"/>
<path d="M74.916 65.34C72.172 65.34 69.372 64.92 66.516 64.08C63.66 63.24 62.176 62.82 62.064 62.82C61.728 62.82 61.336 62.988 60.888 63.324C60.44 63.66 60.216 64.052 60.216 64.5H58.284V52.824H60.132C60.748 56.184 62.4 58.648 65.088 60.216C67.832 61.728 70.94 62.484 74.412 62.484C77.38 62.484 79.816 61.812 81.72 60.468C83.624 59.124 84.576 57.108 84.576 54.42C84.576 53.188 84.296 52.068 83.736 51.06C83.232 50.052 82.42 49.128 81.3 48.288C80.236 47.392 79.2 46.664 78.192 46.104C77.184 45.488 75.868 44.76 74.244 43.92C72.676 43.024 71.472 42.324 70.632 41.82C68.672 40.588 67.216 39.664 66.264 39.048C65.312 38.376 64.08 37.396 62.568 36.108C61.112 34.82 60.048 33.476 59.376 32.076C58.704 30.676 58.368 29.164 58.368 27.54C58.368 24.236 59.88 21.24 62.904 18.552C65.928 15.864 69.316 14.52 73.068 14.52C74.692 14.52 76.708 14.94 79.116 15.78C81.524 16.62 82.896 17.04 83.232 17.04C83.904 17.04 84.24 16.48 84.24 15.36H86.172L87.012 26.028H85.164C84.828 23.564 83.596 21.52 81.468 19.896C79.34 18.216 76.568 17.376 73.152 17.376C70.576 17.376 68.504 18.216 66.936 19.896C65.424 21.52 64.668 23.172 64.668 24.852C64.668 25.916 64.92 26.924 65.424 27.876C65.928 28.772 66.712 29.612 67.776 30.396C68.84 31.18 69.848 31.88 70.8 32.496C71.752 33.056 73.012 33.756 74.58 34.596C76.204 35.436 77.436 36.108 78.276 36.612C80.572 38.012 82.224 39.048 83.232 39.72C84.24 40.392 85.528 41.428 87.096 42.828C88.72 44.228 89.84 45.684 90.456 47.196C91.128 48.652 91.464 50.276 91.464 52.068C91.464 56.212 89.784 59.46 86.424 61.812C83.064 64.164 79.228 65.34 74.916 65.34Z" fill="white" fill-opacity="0.8"/>
<path d="M102 0H150C152.209 0 154 1.79086 154 4V71C154 73.2091 152.209 75 150 75H102V0Z" fill="#9FD8CB"/>
<path d="M126.916 65.34C124.172 65.34 121.372 64.92 118.516 64.08C115.66 63.24 114.176 62.82 114.064 62.82C113.728 62.82 113.336 62.988 112.888 63.324C112.44 63.66 112.216 64.052 112.216 64.5H110.284V52.824H112.132C112.748 56.184 114.4 58.648 117.088 60.216C119.832 61.728 122.94 62.484 126.412 62.484C129.38 62.484 131.816 61.812 133.72 60.468C135.624 59.124 136.576 57.108 136.576 54.42C136.576 53.188 136.296 52.068 135.736 51.06C135.232 50.052 134.42 49.128 133.3 48.288C132.236 47.392 131.2 46.664 130.192 46.104C129.184 45.488 127.868 44.76 126.244 43.92C124.676 43.024 123.472 42.324 122.632 41.82C120.672 40.588 119.216 39.664 118.264 39.048C117.312 38.376 116.08 37.396 114.568 36.108C113.112 34.82 112.048 33.476 111.376 32.076C110.704 30.676 110.368 29.164 110.368 27.54C110.368 24.236 111.88 21.24 114.904 18.552C117.928 15.864 121.316 14.52 125.068 14.52C126.692 14.52 128.708 14.94 131.116 15.78C133.524 16.62 134.896 17.04 135.232 17.04C135.904 17.04 136.24 16.48 136.24 15.36H138.172L139.012 26.028H137.164C136.828 23.564 135.596 21.52 133.468 19.896C131.34 18.216 128.568 17.376 125.152 17.376C122.576 17.376 120.504 18.216 118.936 19.896C117.424 21.52 116.668 23.172 116.668 24.852C116.668 25.916 116.92 26.924 117.424 27.876C117.928 28.772 118.712 29.612 119.776 30.396C120.84 31.18 121.848 31.88 122.8 32.496C123.752 33.056 125.012 33.756 126.58 34.596C128.204 35.436 129.436 36.108 130.276 36.612C132.572 38.012 134.224 39.048 135.232 39.72C136.24 40.392 137.528 41.428 139.096 42.828C140.72 44.228 141.84 45.684 142.456 47.196C143.128 48.652 143.464 50.276 143.464 52.068C143.464 56.212 141.784 59.46 138.424 61.812C135.064 64.164 131.228 65.34 126.916 65.34Z" fill="white" fill-opacity="0.8"/>
<defs>
<linearGradient id="paint0_linear_300_15" x1="1.03054e-06" y1="37.5" x2="154" y2="37.5" gradientUnits="userSpaceOnUse">
<stop stop-color="#C18400"/>
<stop offset="1" stop-color="#F9E6D5"/>
</linearGradient>
</defs>
</svg>
